<mxfile host="Electron" modified="2023-12-17T23:30:05.606Z" agent="Mozilla/5.0 (Windows NT 10.0; Win64; x64) AppleWebKit/537.36 (KHTML, like Gecko) draw.io/22.0.3 Chrome/114.0.5735.289 Electron/25.8.4 Safari/537.36" etag="GkXQpNUi3kpEaVJ0SBPH" version="22.0.3" type="device">
  <diagram name="PÃ¡gina-1" id="ZpMig5viLtSwOUH6fd-I">
    <mxGraphModel dx="2261" dy="844" grid="1" gridSize="10" guides="1" tooltips="1" connect="1" arrows="1" fold="1" page="1" pageScale="1" pageWidth="827" pageHeight="1169" math="0" shadow="0">
      <root>
        <mxCell id="0" />
        <mxCell id="1" parent="0" />
        <mxCell id="FqFTfs3fWWgAQr_3U9MU-47" value="&lt;span style=&quot;color: rgb(254, 250, 224); font-family: Helvetica; font-size: 11px; font-style: normal; font-variant-ligatures: normal; font-variant-caps: normal; font-weight: 400; letter-spacing: normal; orphans: 2; text-align: center; text-indent: 0px; text-transform: none; widows: 2; word-spacing: 0px; -webkit-text-stroke-width: 0px; background-color: rgb(24, 20, 29); text-decoration-thickness: initial; text-decoration-style: initial; text-decoration-color: initial; float: none; display: inline !important;&quot;&gt;(1,2)&lt;/span&gt;" style="edgeStyle=none;shape=connector;rounded=0;orthogonalLoop=1;jettySize=auto;html=1;labelBackgroundColor=default;strokeColor=#DDA15E;align=center;verticalAlign=middle;fontFamily=Helvetica;fontSize=11;fontColor=#FEFAE0;endArrow=none;endFill=0;fillColor=#BC6C25;" edge="1" parent="1" source="FqFTfs3fWWgAQr_3U9MU-1" target="FqFTfs3fWWgAQr_3U9MU-46">
          <mxGeometry relative="1" as="geometry" />
        </mxCell>
        <mxCell id="FqFTfs3fWWgAQr_3U9MU-68" style="edgeStyle=none;shape=connector;rounded=0;orthogonalLoop=1;jettySize=auto;html=1;labelBackgroundColor=default;strokeColor=#DDA15E;align=center;verticalAlign=middle;fontFamily=Helvetica;fontSize=11;fontColor=#FEFAE0;endArrow=none;endFill=0;fillColor=#BC6C25;" edge="1" parent="1" source="FqFTfs3fWWgAQr_3U9MU-1" target="FqFTfs3fWWgAQr_3U9MU-57">
          <mxGeometry relative="1" as="geometry" />
        </mxCell>
        <mxCell id="FqFTfs3fWWgAQr_3U9MU-70" style="edgeStyle=none;shape=connector;rounded=0;orthogonalLoop=1;jettySize=auto;html=1;labelBackgroundColor=default;strokeColor=#DDA15E;align=center;verticalAlign=middle;fontFamily=Helvetica;fontSize=11;fontColor=#FEFAE0;endArrow=none;endFill=0;fillColor=#BC6C25;" edge="1" parent="1" source="FqFTfs3fWWgAQr_3U9MU-1" target="FqFTfs3fWWgAQr_3U9MU-59">
          <mxGeometry relative="1" as="geometry" />
        </mxCell>
        <mxCell id="FqFTfs3fWWgAQr_3U9MU-1" value="EMPLEADOS" style="whiteSpace=wrap;html=1;align=center;labelBackgroundColor=none;fillColor=#BC6C25;strokeColor=#DDA15E;fontColor=#FEFAE0;" vertex="1" parent="1">
          <mxGeometry x="657" y="120" width="100" height="40" as="geometry" />
        </mxCell>
        <mxCell id="FqFTfs3fWWgAQr_3U9MU-3" value="" style="triangle;whiteSpace=wrap;html=1;rotation=91;labelBackgroundColor=none;fillColor=#BC6C25;strokeColor=#DDA15E;fontColor=#FEFAE0;" vertex="1" parent="1">
          <mxGeometry x="677" y="190" width="60" height="80" as="geometry" />
        </mxCell>
        <mxCell id="FqFTfs3fWWgAQr_3U9MU-4" value="" style="ellipse;whiteSpace=wrap;html=1;aspect=fixed;labelBackgroundColor=none;fillColor=#BC6C25;strokeColor=#DDA15E;fontColor=#FEFAE0;" vertex="1" parent="1">
          <mxGeometry x="702" y="180" width="10" height="10" as="geometry" />
        </mxCell>
        <mxCell id="FqFTfs3fWWgAQr_3U9MU-5" value="" style="endArrow=none;html=1;rounded=0;exitX=0.5;exitY=0;exitDx=0;exitDy=0;labelBackgroundColor=none;strokeColor=#DDA15E;fontColor=default;" edge="1" source="FqFTfs3fWWgAQr_3U9MU-4" target="FqFTfs3fWWgAQr_3U9MU-1" parent="1">
          <mxGeometry relative="1" as="geometry">
            <mxPoint x="557" y="210" as="sourcePoint" />
            <mxPoint x="717" y="210" as="targetPoint" />
          </mxGeometry>
        </mxCell>
        <mxCell id="FqFTfs3fWWgAQr_3U9MU-6" value="" style="endArrow=none;html=1;rounded=0;entryX=0.5;entryY=1;entryDx=0;entryDy=0;labelBackgroundColor=none;strokeColor=#DDA15E;fontColor=default;" edge="1" source="FqFTfs3fWWgAQr_3U9MU-3" target="FqFTfs3fWWgAQr_3U9MU-4" parent="1">
          <mxGeometry relative="1" as="geometry">
            <mxPoint x="667" y="240" as="sourcePoint" />
            <mxPoint x="827" y="240" as="targetPoint" />
          </mxGeometry>
        </mxCell>
        <mxCell id="FqFTfs3fWWgAQr_3U9MU-8" value="DIRECTOR" style="whiteSpace=wrap;html=1;align=center;labelBackgroundColor=none;fillColor=#BC6C25;strokeColor=#DDA15E;fontColor=#FEFAE0;" vertex="1" parent="1">
          <mxGeometry x="587" y="290" width="80" height="40" as="geometry" />
        </mxCell>
        <mxCell id="FqFTfs3fWWgAQr_3U9MU-33" style="rounded=0;orthogonalLoop=1;jettySize=auto;html=1;strokeColor=#DDA15E;fontColor=#FEFAE0;fillColor=#BC6C25;endArrow=none;endFill=0;" edge="1" parent="1" source="FqFTfs3fWWgAQr_3U9MU-9" target="FqFTfs3fWWgAQr_3U9MU-32">
          <mxGeometry relative="1" as="geometry" />
        </mxCell>
        <mxCell id="FqFTfs3fWWgAQr_3U9MU-117" value="(2,30)" style="edgeLabel;html=1;align=center;verticalAlign=middle;resizable=0;points=[];fontSize=11;fontFamily=Helvetica;fontColor=#FEFAE0;" vertex="1" connectable="0" parent="FqFTfs3fWWgAQr_3U9MU-33">
          <mxGeometry x="0.0427" y="2" relative="1" as="geometry">
            <mxPoint as="offset" />
          </mxGeometry>
        </mxCell>
        <mxCell id="FqFTfs3fWWgAQr_3U9MU-9" value="NO_DIRECTOR" style="whiteSpace=wrap;html=1;align=center;labelBackgroundColor=none;fillColor=#BC6C25;strokeColor=#DDA15E;fontColor=#FEFAE0;" vertex="1" parent="1">
          <mxGeometry x="730" y="350" width="97" height="40" as="geometry" />
        </mxCell>
        <mxCell id="FqFTfs3fWWgAQr_3U9MU-10" value="" style="endArrow=none;html=1;rounded=0;labelBackgroundColor=none;strokeColor=#DDA15E;fontColor=default;" edge="1" source="FqFTfs3fWWgAQr_3U9MU-3" target="FqFTfs3fWWgAQr_3U9MU-9" parent="1">
          <mxGeometry relative="1" as="geometry">
            <mxPoint x="717" y="269" as="sourcePoint" />
            <mxPoint x="717" y="300" as="targetPoint" />
          </mxGeometry>
        </mxCell>
        <mxCell id="FqFTfs3fWWgAQr_3U9MU-126" value="(0,1)" style="edgeLabel;html=1;align=center;verticalAlign=middle;resizable=0;points=[];fontSize=11;fontFamily=Helvetica;fontColor=#FEFAE0;" vertex="1" connectable="0" parent="FqFTfs3fWWgAQr_3U9MU-10">
          <mxGeometry x="0.1796" y="1" relative="1" as="geometry">
            <mxPoint x="1" as="offset" />
          </mxGeometry>
        </mxCell>
        <mxCell id="FqFTfs3fWWgAQr_3U9MU-11" value="" style="endArrow=none;html=1;rounded=0;labelBackgroundColor=none;strokeColor=#DDA15E;fontColor=default;" edge="1" source="FqFTfs3fWWgAQr_3U9MU-3" target="FqFTfs3fWWgAQr_3U9MU-8" parent="1">
          <mxGeometry relative="1" as="geometry">
            <mxPoint x="729" y="252" as="sourcePoint" />
            <mxPoint x="777" y="300" as="targetPoint" />
          </mxGeometry>
        </mxCell>
        <mxCell id="FqFTfs3fWWgAQr_3U9MU-127" value="(0,1)" style="edgeLabel;html=1;align=center;verticalAlign=middle;resizable=0;points=[];fontSize=11;fontFamily=Helvetica;fontColor=#FEFAE0;" vertex="1" connectable="0" parent="FqFTfs3fWWgAQr_3U9MU-11">
          <mxGeometry x="0.3744" y="3" relative="1" as="geometry">
            <mxPoint as="offset" />
          </mxGeometry>
        </mxCell>
        <mxCell id="FqFTfs3fWWgAQr_3U9MU-12" value="" style="endArrow=none;html=1;rounded=0;edgeStyle=orthogonalEdgeStyle;curved=1;labelBackgroundColor=none;strokeColor=#DDA15E;fontColor=default;" edge="1" parent="1">
          <mxGeometry width="50" height="50" relative="1" as="geometry">
            <mxPoint x="639.5" y="247" as="sourcePoint" />
            <mxPoint x="774.5" y="243" as="targetPoint" />
            <Array as="points">
              <mxPoint x="639.5" y="270" />
              <mxPoint x="774.5" y="270" />
            </Array>
          </mxGeometry>
        </mxCell>
        <mxCell id="FqFTfs3fWWgAQr_3U9MU-50" style="edgeStyle=none;shape=connector;rounded=0;orthogonalLoop=1;jettySize=auto;html=1;labelBackgroundColor=default;strokeColor=#DDA15E;align=center;verticalAlign=middle;fontFamily=Helvetica;fontSize=11;fontColor=#FEFAE0;endArrow=none;endFill=0;fillColor=#BC6C25;" edge="1" parent="1" source="FqFTfs3fWWgAQr_3U9MU-13" target="FqFTfs3fWWgAQr_3U9MU-49">
          <mxGeometry relative="1" as="geometry" />
        </mxCell>
        <mxCell id="FqFTfs3fWWgAQr_3U9MU-123" value="(0,N)" style="edgeLabel;html=1;align=center;verticalAlign=middle;resizable=0;points=[];fontSize=11;fontFamily=Helvetica;fontColor=#FEFAE0;" vertex="1" connectable="0" parent="FqFTfs3fWWgAQr_3U9MU-50">
          <mxGeometry x="0.0682" y="4" relative="1" as="geometry">
            <mxPoint as="offset" />
          </mxGeometry>
        </mxCell>
        <mxCell id="FqFTfs3fWWgAQr_3U9MU-64" style="edgeStyle=none;shape=connector;rounded=0;orthogonalLoop=1;jettySize=auto;html=1;labelBackgroundColor=default;strokeColor=#DDA15E;align=center;verticalAlign=middle;fontFamily=Helvetica;fontSize=11;fontColor=#FEFAE0;endArrow=none;endFill=0;fillColor=#BC6C25;" edge="1" parent="1" source="FqFTfs3fWWgAQr_3U9MU-13" target="FqFTfs3fWWgAQr_3U9MU-60">
          <mxGeometry relative="1" as="geometry" />
        </mxCell>
        <mxCell id="FqFTfs3fWWgAQr_3U9MU-65" style="edgeStyle=none;shape=connector;rounded=0;orthogonalLoop=1;jettySize=auto;html=1;labelBackgroundColor=default;strokeColor=#DDA15E;align=center;verticalAlign=middle;fontFamily=Helvetica;fontSize=11;fontColor=#FEFAE0;endArrow=none;endFill=0;fillColor=#BC6C25;" edge="1" parent="1" source="FqFTfs3fWWgAQr_3U9MU-13" target="FqFTfs3fWWgAQr_3U9MU-61">
          <mxGeometry relative="1" as="geometry" />
        </mxCell>
        <mxCell id="FqFTfs3fWWgAQr_3U9MU-66" style="edgeStyle=none;shape=connector;rounded=0;orthogonalLoop=1;jettySize=auto;html=1;labelBackgroundColor=default;strokeColor=#DDA15E;align=center;verticalAlign=middle;fontFamily=Helvetica;fontSize=11;fontColor=#FEFAE0;endArrow=none;endFill=0;fillColor=#BC6C25;" edge="1" parent="1" source="FqFTfs3fWWgAQr_3U9MU-13" target="FqFTfs3fWWgAQr_3U9MU-63">
          <mxGeometry relative="1" as="geometry" />
        </mxCell>
        <mxCell id="FqFTfs3fWWgAQr_3U9MU-67" style="edgeStyle=none;shape=connector;rounded=0;orthogonalLoop=1;jettySize=auto;html=1;labelBackgroundColor=default;strokeColor=#DDA15E;align=center;verticalAlign=middle;fontFamily=Helvetica;fontSize=11;fontColor=#FEFAE0;endArrow=none;endFill=0;fillColor=#BC6C25;" edge="1" parent="1" source="FqFTfs3fWWgAQr_3U9MU-13" target="FqFTfs3fWWgAQr_3U9MU-62">
          <mxGeometry relative="1" as="geometry" />
        </mxCell>
        <mxCell id="FqFTfs3fWWgAQr_3U9MU-13" value="HIJO" style="shape=ext;margin=3;double=1;whiteSpace=wrap;html=1;align=center;labelBackgroundColor=none;fillColor=#BC6C25;strokeColor=#DDA15E;fontColor=#FEFAE0;" vertex="1" parent="1">
          <mxGeometry x="260" y="120" width="100" height="40" as="geometry" />
        </mxCell>
        <mxCell id="FqFTfs3fWWgAQr_3U9MU-53" style="edgeStyle=none;shape=connector;rounded=0;orthogonalLoop=1;jettySize=auto;html=1;labelBackgroundColor=default;strokeColor=#DDA15E;align=center;verticalAlign=middle;fontFamily=Helvetica;fontSize=11;fontColor=#FEFAE0;endArrow=none;endFill=0;fillColor=#BC6C25;" edge="1" parent="1" source="FqFTfs3fWWgAQr_3U9MU-14" target="FqFTfs3fWWgAQr_3U9MU-52">
          <mxGeometry relative="1" as="geometry" />
        </mxCell>
        <mxCell id="FqFTfs3fWWgAQr_3U9MU-124" value="(0,N)" style="edgeLabel;html=1;align=center;verticalAlign=middle;resizable=0;points=[];fontSize=11;fontFamily=Helvetica;fontColor=#FEFAE0;" vertex="1" connectable="0" parent="FqFTfs3fWWgAQr_3U9MU-53">
          <mxGeometry x="0.1008" y="4" relative="1" as="geometry">
            <mxPoint as="offset" />
          </mxGeometry>
        </mxCell>
        <mxCell id="FqFTfs3fWWgAQr_3U9MU-106" style="edgeStyle=none;shape=connector;rounded=0;orthogonalLoop=1;jettySize=auto;html=1;labelBackgroundColor=default;strokeColor=#DDA15E;align=center;verticalAlign=middle;fontFamily=Helvetica;fontSize=11;fontColor=#FEFAE0;endArrow=none;endFill=0;fillColor=#BC6C25;" edge="1" parent="1" source="FqFTfs3fWWgAQr_3U9MU-14" target="FqFTfs3fWWgAQr_3U9MU-105">
          <mxGeometry relative="1" as="geometry" />
        </mxCell>
        <mxCell id="FqFTfs3fWWgAQr_3U9MU-107" style="edgeStyle=none;shape=connector;rounded=0;orthogonalLoop=1;jettySize=auto;html=1;labelBackgroundColor=default;strokeColor=#DDA15E;align=center;verticalAlign=middle;fontFamily=Helvetica;fontSize=11;fontColor=#FEFAE0;endArrow=none;endFill=0;fillColor=#BC6C25;" edge="1" parent="1" source="FqFTfs3fWWgAQr_3U9MU-14" target="FqFTfs3fWWgAQr_3U9MU-104">
          <mxGeometry relative="1" as="geometry" />
        </mxCell>
        <mxCell id="FqFTfs3fWWgAQr_3U9MU-108" style="edgeStyle=none;shape=connector;rounded=0;orthogonalLoop=1;jettySize=auto;html=1;labelBackgroundColor=default;strokeColor=#DDA15E;align=center;verticalAlign=middle;fontFamily=Helvetica;fontSize=11;fontColor=#FEFAE0;endArrow=none;endFill=0;fillColor=#BC6C25;" edge="1" parent="1" source="FqFTfs3fWWgAQr_3U9MU-14" target="FqFTfs3fWWgAQr_3U9MU-103">
          <mxGeometry relative="1" as="geometry" />
        </mxCell>
        <mxCell id="FqFTfs3fWWgAQr_3U9MU-109" style="edgeStyle=none;shape=connector;rounded=0;orthogonalLoop=1;jettySize=auto;html=1;labelBackgroundColor=default;strokeColor=#DDA15E;align=center;verticalAlign=middle;fontFamily=Helvetica;fontSize=11;fontColor=#FEFAE0;endArrow=none;endFill=0;fillColor=#BC6C25;" edge="1" parent="1" source="FqFTfs3fWWgAQr_3U9MU-14" target="FqFTfs3fWWgAQr_3U9MU-102">
          <mxGeometry relative="1" as="geometry" />
        </mxCell>
        <mxCell id="FqFTfs3fWWgAQr_3U9MU-14" value="BECA" style="shape=ext;margin=3;double=1;whiteSpace=wrap;html=1;align=center;labelBackgroundColor=none;fillColor=#BC6C25;strokeColor=#DDA15E;fontColor=#FEFAE0;" vertex="1" parent="1">
          <mxGeometry x="-130" y="290" width="100" height="40" as="geometry" />
        </mxCell>
        <mxCell id="FqFTfs3fWWgAQr_3U9MU-18" value="" style="triangle;whiteSpace=wrap;html=1;rotation=91;labelBackgroundColor=none;fillColor=#BC6C25;strokeColor=#DDA15E;fontColor=#FEFAE0;" vertex="1" parent="1">
          <mxGeometry x="747" y="420" width="60" height="80" as="geometry" />
        </mxCell>
        <mxCell id="FqFTfs3fWWgAQr_3U9MU-19" value="" style="ellipse;whiteSpace=wrap;html=1;aspect=fixed;labelBackgroundColor=none;fillColor=#BC6C25;strokeColor=#DDA15E;fontColor=#FEFAE0;" vertex="1" parent="1">
          <mxGeometry x="772" y="410" width="10" height="10" as="geometry" />
        </mxCell>
        <mxCell id="FqFTfs3fWWgAQr_3U9MU-20" value="" style="endArrow=none;html=1;rounded=0;exitX=0.5;exitY=0;exitDx=0;exitDy=0;labelBackgroundColor=none;strokeColor=#DDA15E;fontColor=default;" edge="1" source="FqFTfs3fWWgAQr_3U9MU-19" parent="1">
          <mxGeometry relative="1" as="geometry">
            <mxPoint x="627" y="440" as="sourcePoint" />
            <mxPoint x="777" y="390" as="targetPoint" />
          </mxGeometry>
        </mxCell>
        <mxCell id="FqFTfs3fWWgAQr_3U9MU-21" value="" style="endArrow=none;html=1;rounded=0;entryX=0.5;entryY=1;entryDx=0;entryDy=0;labelBackgroundColor=none;strokeColor=#DDA15E;fontColor=default;" edge="1" source="FqFTfs3fWWgAQr_3U9MU-18" target="FqFTfs3fWWgAQr_3U9MU-19" parent="1">
          <mxGeometry relative="1" as="geometry">
            <mxPoint x="737" y="470" as="sourcePoint" />
            <mxPoint x="897" y="470" as="targetPoint" />
          </mxGeometry>
        </mxCell>
        <mxCell id="FqFTfs3fWWgAQr_3U9MU-38" style="edgeStyle=none;shape=connector;rounded=0;orthogonalLoop=1;jettySize=auto;html=1;labelBackgroundColor=default;strokeColor=#DDA15E;align=center;verticalAlign=middle;fontFamily=Helvetica;fontSize=11;fontColor=#FEFAE0;endArrow=none;endFill=0;fillColor=#BC6C25;" edge="1" parent="1" source="FqFTfs3fWWgAQr_3U9MU-23" target="FqFTfs3fWWgAQr_3U9MU-37">
          <mxGeometry relative="1" as="geometry" />
        </mxCell>
        <mxCell id="FqFTfs3fWWgAQr_3U9MU-118" value="(1,5)" style="edgeLabel;html=1;align=center;verticalAlign=middle;resizable=0;points=[];fontSize=11;fontFamily=Helvetica;fontColor=#FEFAE0;" vertex="1" connectable="0" parent="FqFTfs3fWWgAQr_3U9MU-38">
          <mxGeometry x="0.0056" y="-2" relative="1" as="geometry">
            <mxPoint as="offset" />
          </mxGeometry>
        </mxCell>
        <mxCell id="FqFTfs3fWWgAQr_3U9MU-81" style="edgeStyle=none;shape=connector;rounded=0;orthogonalLoop=1;jettySize=auto;html=1;labelBackgroundColor=default;strokeColor=#DDA15E;align=center;verticalAlign=middle;fontFamily=Helvetica;fontSize=11;fontColor=#FEFAE0;endArrow=none;endFill=0;fillColor=#BC6C25;" edge="1" parent="1" source="FqFTfs3fWWgAQr_3U9MU-23" target="FqFTfs3fWWgAQr_3U9MU-80">
          <mxGeometry relative="1" as="geometry" />
        </mxCell>
        <mxCell id="FqFTfs3fWWgAQr_3U9MU-23" value="INGENIERO" style="whiteSpace=wrap;html=1;align=center;labelBackgroundColor=none;fillColor=#BC6C25;strokeColor=#DDA15E;fontColor=#FEFAE0;" vertex="1" parent="1">
          <mxGeometry x="657" y="520" width="80" height="40" as="geometry" />
        </mxCell>
        <mxCell id="FqFTfs3fWWgAQr_3U9MU-78" style="edgeStyle=none;shape=connector;rounded=0;orthogonalLoop=1;jettySize=auto;html=1;labelBackgroundColor=default;strokeColor=#DDA15E;align=center;verticalAlign=middle;fontFamily=Helvetica;fontSize=11;fontColor=#FEFAE0;endArrow=none;endFill=0;fillColor=#BC6C25;" edge="1" parent="1" source="FqFTfs3fWWgAQr_3U9MU-24" target="FqFTfs3fWWgAQr_3U9MU-76">
          <mxGeometry relative="1" as="geometry" />
        </mxCell>
        <mxCell id="FqFTfs3fWWgAQr_3U9MU-79" style="edgeStyle=none;shape=connector;rounded=0;orthogonalLoop=1;jettySize=auto;html=1;labelBackgroundColor=default;strokeColor=#DDA15E;align=center;verticalAlign=middle;fontFamily=Helvetica;fontSize=11;fontColor=#FEFAE0;endArrow=none;endFill=0;fillColor=#BC6C25;" edge="1" parent="1" source="FqFTfs3fWWgAQr_3U9MU-24" target="FqFTfs3fWWgAQr_3U9MU-77">
          <mxGeometry relative="1" as="geometry" />
        </mxCell>
        <mxCell id="FqFTfs3fWWgAQr_3U9MU-24" value="REP_VENTAS" style="whiteSpace=wrap;html=1;align=center;labelBackgroundColor=none;fillColor=#BC6C25;strokeColor=#DDA15E;fontColor=#FEFAE0;" vertex="1" parent="1">
          <mxGeometry x="817" y="520" width="80" height="40" as="geometry" />
        </mxCell>
        <mxCell id="FqFTfs3fWWgAQr_3U9MU-25" value="" style="endArrow=none;html=1;rounded=0;labelBackgroundColor=none;strokeColor=#DDA15E;fontColor=default;" edge="1" source="FqFTfs3fWWgAQr_3U9MU-18" target="FqFTfs3fWWgAQr_3U9MU-24" parent="1">
          <mxGeometry relative="1" as="geometry">
            <mxPoint x="787" y="499" as="sourcePoint" />
            <mxPoint x="787" y="530" as="targetPoint" />
          </mxGeometry>
        </mxCell>
        <mxCell id="FqFTfs3fWWgAQr_3U9MU-129" value="(0,1)" style="edgeLabel;html=1;align=center;verticalAlign=middle;resizable=0;points=[];fontSize=11;fontFamily=Helvetica;fontColor=#FEFAE0;" vertex="1" connectable="0" parent="FqFTfs3fWWgAQr_3U9MU-25">
          <mxGeometry x="0.3547" y="2" relative="1" as="geometry">
            <mxPoint as="offset" />
          </mxGeometry>
        </mxCell>
        <mxCell id="FqFTfs3fWWgAQr_3U9MU-26" value="" style="endArrow=none;html=1;rounded=0;labelBackgroundColor=none;strokeColor=#DDA15E;fontColor=default;" edge="1" source="FqFTfs3fWWgAQr_3U9MU-18" target="FqFTfs3fWWgAQr_3U9MU-23" parent="1">
          <mxGeometry relative="1" as="geometry">
            <mxPoint x="799" y="482" as="sourcePoint" />
            <mxPoint x="847" y="530" as="targetPoint" />
          </mxGeometry>
        </mxCell>
        <mxCell id="FqFTfs3fWWgAQr_3U9MU-128" value="(0,1)" style="edgeLabel;html=1;align=center;verticalAlign=middle;resizable=0;points=[];fontSize=11;fontFamily=Helvetica;fontColor=#FEFAE0;" vertex="1" connectable="0" parent="FqFTfs3fWWgAQr_3U9MU-26">
          <mxGeometry x="0.5204" y="-2" relative="1" as="geometry">
            <mxPoint as="offset" />
          </mxGeometry>
        </mxCell>
        <mxCell id="FqFTfs3fWWgAQr_3U9MU-27" value="" style="endArrow=none;html=1;rounded=0;edgeStyle=orthogonalEdgeStyle;curved=1;labelBackgroundColor=none;strokeColor=#DDA15E;fontColor=default;" edge="1" parent="1">
          <mxGeometry width="50" height="50" relative="1" as="geometry">
            <mxPoint x="709.5" y="477" as="sourcePoint" />
            <mxPoint x="844.5" y="473" as="targetPoint" />
            <Array as="points">
              <mxPoint x="709.5" y="500" />
              <mxPoint x="844.5" y="500" />
            </Array>
          </mxGeometry>
        </mxCell>
        <mxCell id="FqFTfs3fWWgAQr_3U9MU-86" style="edgeStyle=none;shape=connector;rounded=0;orthogonalLoop=1;jettySize=auto;html=1;labelBackgroundColor=default;strokeColor=#DDA15E;align=center;verticalAlign=middle;fontFamily=Helvetica;fontSize=11;fontColor=#FEFAE0;endArrow=none;endFill=0;fillColor=#BC6C25;" edge="1" parent="1" source="FqFTfs3fWWgAQr_3U9MU-28" target="FqFTfs3fWWgAQr_3U9MU-85">
          <mxGeometry relative="1" as="geometry" />
        </mxCell>
        <mxCell id="FqFTfs3fWWgAQr_3U9MU-87" style="edgeStyle=none;shape=connector;rounded=0;orthogonalLoop=1;jettySize=auto;html=1;labelBackgroundColor=default;strokeColor=#DDA15E;align=center;verticalAlign=middle;fontFamily=Helvetica;fontSize=11;fontColor=#FEFAE0;endArrow=none;endFill=0;fillColor=#BC6C25;" edge="1" parent="1" source="FqFTfs3fWWgAQr_3U9MU-28" target="FqFTfs3fWWgAQr_3U9MU-83">
          <mxGeometry relative="1" as="geometry" />
        </mxCell>
        <mxCell id="FqFTfs3fWWgAQr_3U9MU-88" style="edgeStyle=none;shape=connector;rounded=0;orthogonalLoop=1;jettySize=auto;html=1;labelBackgroundColor=default;strokeColor=#DDA15E;align=center;verticalAlign=middle;fontFamily=Helvetica;fontSize=11;fontColor=#FEFAE0;endArrow=none;endFill=0;fillColor=#BC6C25;" edge="1" parent="1" source="FqFTfs3fWWgAQr_3U9MU-28" target="FqFTfs3fWWgAQr_3U9MU-82">
          <mxGeometry relative="1" as="geometry" />
        </mxCell>
        <mxCell id="FqFTfs3fWWgAQr_3U9MU-89" style="edgeStyle=none;shape=connector;rounded=0;orthogonalLoop=1;jettySize=auto;html=1;labelBackgroundColor=default;strokeColor=#DDA15E;align=center;verticalAlign=middle;fontFamily=Helvetica;fontSize=11;fontColor=#FEFAE0;endArrow=none;endFill=0;fillColor=#BC6C25;" edge="1" parent="1" source="FqFTfs3fWWgAQr_3U9MU-28" target="FqFTfs3fWWgAQr_3U9MU-84">
          <mxGeometry relative="1" as="geometry" />
        </mxCell>
        <mxCell id="FqFTfs3fWWgAQr_3U9MU-28" value="REGION" style="whiteSpace=wrap;html=1;align=center;labelBackgroundColor=none;fillColor=#BC6C25;strokeColor=#DDA15E;fontColor=#FEFAE0;" vertex="1" parent="1">
          <mxGeometry x="807" y="840" width="100" height="40" as="geometry" />
        </mxCell>
        <mxCell id="FqFTfs3fWWgAQr_3U9MU-41" style="edgeStyle=none;shape=connector;rounded=0;orthogonalLoop=1;jettySize=auto;html=1;labelBackgroundColor=default;strokeColor=#DDA15E;align=center;verticalAlign=middle;fontFamily=Helvetica;fontSize=11;fontColor=#FEFAE0;endArrow=none;endFill=0;fillColor=#BC6C25;" edge="1" parent="1" source="FqFTfs3fWWgAQr_3U9MU-29" target="FqFTfs3fWWgAQr_3U9MU-40">
          <mxGeometry relative="1" as="geometry" />
        </mxCell>
        <mxCell id="FqFTfs3fWWgAQr_3U9MU-120" value="(1,N)" style="edgeLabel;html=1;align=center;verticalAlign=middle;resizable=0;points=[];fontSize=11;fontFamily=Helvetica;fontColor=#FEFAE0;" vertex="1" connectable="0" parent="FqFTfs3fWWgAQr_3U9MU-41">
          <mxGeometry x="0.1297" y="-2" relative="1" as="geometry">
            <mxPoint as="offset" />
          </mxGeometry>
        </mxCell>
        <mxCell id="FqFTfs3fWWgAQr_3U9MU-93" style="edgeStyle=none;shape=connector;rounded=0;orthogonalLoop=1;jettySize=auto;html=1;labelBackgroundColor=default;strokeColor=#DDA15E;align=center;verticalAlign=middle;fontFamily=Helvetica;fontSize=11;fontColor=#FEFAE0;endArrow=none;endFill=0;fillColor=#BC6C25;" edge="1" parent="1" source="FqFTfs3fWWgAQr_3U9MU-29" target="FqFTfs3fWWgAQr_3U9MU-92">
          <mxGeometry relative="1" as="geometry" />
        </mxCell>
        <mxCell id="FqFTfs3fWWgAQr_3U9MU-94" style="edgeStyle=none;shape=connector;rounded=0;orthogonalLoop=1;jettySize=auto;html=1;labelBackgroundColor=default;strokeColor=#DDA15E;align=center;verticalAlign=middle;fontFamily=Helvetica;fontSize=11;fontColor=#FEFAE0;endArrow=none;endFill=0;fillColor=#BC6C25;" edge="1" parent="1" source="FqFTfs3fWWgAQr_3U9MU-29" target="FqFTfs3fWWgAQr_3U9MU-91">
          <mxGeometry relative="1" as="geometry" />
        </mxCell>
        <mxCell id="FqFTfs3fWWgAQr_3U9MU-95" style="edgeStyle=none;shape=connector;rounded=0;orthogonalLoop=1;jettySize=auto;html=1;labelBackgroundColor=default;strokeColor=#DDA15E;align=center;verticalAlign=middle;fontFamily=Helvetica;fontSize=11;fontColor=#FEFAE0;endArrow=none;endFill=0;fillColor=#BC6C25;" edge="1" parent="1" source="FqFTfs3fWWgAQr_3U9MU-29" target="FqFTfs3fWWgAQr_3U9MU-90">
          <mxGeometry relative="1" as="geometry" />
        </mxCell>
        <mxCell id="FqFTfs3fWWgAQr_3U9MU-29" value="PROYECTO" style="shape=ext;margin=3;double=1;whiteSpace=wrap;html=1;align=center;labelBackgroundColor=none;fillColor=#BC6C25;strokeColor=#DDA15E;fontColor=#FEFAE0;" vertex="1" parent="1">
          <mxGeometry x="320" y="810" width="100" height="40" as="geometry" />
        </mxCell>
        <mxCell id="FqFTfs3fWWgAQr_3U9MU-42" style="edgeStyle=none;shape=connector;rounded=0;orthogonalLoop=1;jettySize=auto;html=1;labelBackgroundColor=default;strokeColor=#DDA15E;align=center;verticalAlign=middle;fontFamily=Helvetica;fontSize=11;fontColor=#FEFAE0;endArrow=none;endFill=0;fillColor=#BC6C25;" edge="1" parent="1" source="FqFTfs3fWWgAQr_3U9MU-30" target="FqFTfs3fWWgAQr_3U9MU-40">
          <mxGeometry relative="1" as="geometry" />
        </mxCell>
        <mxCell id="FqFTfs3fWWgAQr_3U9MU-115" value="(1,1)" style="edgeLabel;html=1;align=center;verticalAlign=middle;resizable=0;points=[];fontSize=11;fontFamily=Helvetica;fontColor=#FEFAE0;" vertex="1" connectable="0" parent="FqFTfs3fWWgAQr_3U9MU-42">
          <mxGeometry x="-0.064" relative="1" as="geometry">
            <mxPoint as="offset" />
          </mxGeometry>
        </mxCell>
        <mxCell id="FqFTfs3fWWgAQr_3U9MU-99" style="edgeStyle=none;shape=connector;rounded=0;orthogonalLoop=1;jettySize=auto;html=1;labelBackgroundColor=default;strokeColor=#DDA15E;align=center;verticalAlign=middle;fontFamily=Helvetica;fontSize=11;fontColor=#FEFAE0;endArrow=none;endFill=0;fillColor=#BC6C25;" edge="1" parent="1" source="FqFTfs3fWWgAQr_3U9MU-30" target="FqFTfs3fWWgAQr_3U9MU-96">
          <mxGeometry relative="1" as="geometry" />
        </mxCell>
        <mxCell id="FqFTfs3fWWgAQr_3U9MU-100" style="edgeStyle=none;shape=connector;rounded=0;orthogonalLoop=1;jettySize=auto;html=1;labelBackgroundColor=default;strokeColor=#DDA15E;align=center;verticalAlign=middle;fontFamily=Helvetica;fontSize=11;fontColor=#FEFAE0;endArrow=none;endFill=0;fillColor=#BC6C25;" edge="1" parent="1" source="FqFTfs3fWWgAQr_3U9MU-30" target="FqFTfs3fWWgAQr_3U9MU-97">
          <mxGeometry relative="1" as="geometry" />
        </mxCell>
        <mxCell id="FqFTfs3fWWgAQr_3U9MU-101" style="edgeStyle=none;shape=connector;rounded=0;orthogonalLoop=1;jettySize=auto;html=1;entryX=1;entryY=1;entryDx=0;entryDy=0;labelBackgroundColor=default;strokeColor=#DDA15E;align=center;verticalAlign=middle;fontFamily=Helvetica;fontSize=11;fontColor=#FEFAE0;endArrow=none;endFill=0;fillColor=#BC6C25;" edge="1" parent="1" source="FqFTfs3fWWgAQr_3U9MU-30" target="FqFTfs3fWWgAQr_3U9MU-98">
          <mxGeometry relative="1" as="geometry" />
        </mxCell>
        <mxCell id="FqFTfs3fWWgAQr_3U9MU-30" value="DEPARTAMENTO" style="whiteSpace=wrap;html=1;align=center;labelBackgroundColor=none;fillColor=#BC6C25;strokeColor=#DDA15E;fontColor=#FEFAE0;" vertex="1" parent="1">
          <mxGeometry x="200" y="510" width="100" height="40" as="geometry" />
        </mxCell>
        <mxCell id="FqFTfs3fWWgAQr_3U9MU-35" style="edgeStyle=none;shape=connector;rounded=0;orthogonalLoop=1;jettySize=auto;html=1;labelBackgroundColor=default;strokeColor=#DDA15E;align=center;verticalAlign=middle;fontFamily=Helvetica;fontSize=11;fontColor=#FEFAE0;endArrow=none;endFill=0;fillColor=#BC6C25;" edge="1" parent="1" source="FqFTfs3fWWgAQr_3U9MU-31" target="FqFTfs3fWWgAQr_3U9MU-30">
          <mxGeometry relative="1" as="geometry" />
        </mxCell>
        <mxCell id="FqFTfs3fWWgAQr_3U9MU-111" value="(1,1)" style="edgeLabel;html=1;align=center;verticalAlign=middle;resizable=0;points=[];fontSize=11;fontFamily=Helvetica;fontColor=#FEFAE0;" vertex="1" connectable="0" parent="FqFTfs3fWWgAQr_3U9MU-35">
          <mxGeometry x="-0.313" y="-4" relative="1" as="geometry">
            <mxPoint as="offset" />
          </mxGeometry>
        </mxCell>
        <mxCell id="FqFTfs3fWWgAQr_3U9MU-36" style="edgeStyle=none;shape=connector;rounded=0;orthogonalLoop=1;jettySize=auto;html=1;labelBackgroundColor=default;strokeColor=#DDA15E;align=center;verticalAlign=middle;fontFamily=Helvetica;fontSize=11;fontColor=#FEFAE0;endArrow=none;endFill=0;fillColor=#BC6C25;" edge="1" parent="1" source="FqFTfs3fWWgAQr_3U9MU-31" target="FqFTfs3fWWgAQr_3U9MU-8">
          <mxGeometry relative="1" as="geometry" />
        </mxCell>
        <mxCell id="FqFTfs3fWWgAQr_3U9MU-112" value="(1,1)" style="edgeLabel;html=1;align=center;verticalAlign=middle;resizable=0;points=[];fontSize=11;fontFamily=Helvetica;fontColor=#FEFAE0;" vertex="1" connectable="0" parent="FqFTfs3fWWgAQr_3U9MU-36">
          <mxGeometry x="0.3618" y="-1" relative="1" as="geometry">
            <mxPoint as="offset" />
          </mxGeometry>
        </mxCell>
        <mxCell id="FqFTfs3fWWgAQr_3U9MU-31" value="Dirige" style="shape=rhombus;perimeter=rhombusPerimeter;whiteSpace=wrap;html=1;align=center;labelBackgroundColor=none;fillColor=#BC6C25;strokeColor=#DDA15E;fontColor=#FEFAE0;" vertex="1" parent="1">
          <mxGeometry x="380" y="360" width="120" height="60" as="geometry" />
        </mxCell>
        <mxCell id="FqFTfs3fWWgAQr_3U9MU-34" value="&#xa;&lt;span style=&quot;color: rgb(254, 250, 224); font-family: Helvetica; font-size: 11px; font-style: normal; font-variant-ligatures: normal; font-variant-caps: normal; font-weight: 400; letter-spacing: normal; orphans: 2; text-align: center; text-indent: 0px; text-transform: none; widows: 2; word-spacing: 0px; -webkit-text-stroke-width: 0px; background-color: rgb(24, 20, 29); text-decoration-thickness: initial; text-decoration-style: initial; text-decoration-color: initial; float: none; display: inline !important;&quot;&gt;(1,1)&lt;/span&gt;&#xa;&#xa;" style="edgeStyle=none;shape=connector;rounded=0;orthogonalLoop=1;jettySize=auto;html=1;labelBackgroundColor=default;strokeColor=#DDA15E;align=center;verticalAlign=middle;fontFamily=Helvetica;fontSize=11;fontColor=#FEFAE0;endArrow=none;endFill=0;fillColor=#BC6C25;" edge="1" parent="1" source="FqFTfs3fWWgAQr_3U9MU-32" target="FqFTfs3fWWgAQr_3U9MU-30">
          <mxGeometry relative="1" as="geometry" />
        </mxCell>
        <mxCell id="FqFTfs3fWWgAQr_3U9MU-32" value="Trabaja" style="shape=rhombus;perimeter=rhombusPerimeter;whiteSpace=wrap;html=1;align=center;labelBackgroundColor=none;fillColor=#BC6C25;strokeColor=#DDA15E;fontColor=#FEFAE0;" vertex="1" parent="1">
          <mxGeometry x="440" y="470" width="120" height="60" as="geometry" />
        </mxCell>
        <mxCell id="FqFTfs3fWWgAQr_3U9MU-39" style="edgeStyle=none;shape=connector;rounded=0;orthogonalLoop=1;jettySize=auto;html=1;labelBackgroundColor=default;strokeColor=#DDA15E;align=center;verticalAlign=middle;fontFamily=Helvetica;fontSize=11;fontColor=#FEFAE0;endArrow=none;endFill=0;fillColor=#BC6C25;" edge="1" parent="1" source="FqFTfs3fWWgAQr_3U9MU-37" target="FqFTfs3fWWgAQr_3U9MU-29">
          <mxGeometry relative="1" as="geometry" />
        </mxCell>
        <mxCell id="FqFTfs3fWWgAQr_3U9MU-119" value="(1,2)" style="edgeLabel;html=1;align=center;verticalAlign=middle;resizable=0;points=[];fontSize=11;fontFamily=Helvetica;fontColor=#FEFAE0;" vertex="1" connectable="0" parent="FqFTfs3fWWgAQr_3U9MU-39">
          <mxGeometry x="-0.0189" y="1" relative="1" as="geometry">
            <mxPoint as="offset" />
          </mxGeometry>
        </mxCell>
        <mxCell id="FqFTfs3fWWgAQr_3U9MU-37" value="Realiza" style="shape=rhombus;perimeter=rhombusPerimeter;whiteSpace=wrap;html=1;align=center;strokeColor=#DDA15E;fontFamily=Helvetica;fontSize=11;fontColor=#FEFAE0;fillColor=#BC6C25;" vertex="1" parent="1">
          <mxGeometry x="490" y="660" width="120" height="60" as="geometry" />
        </mxCell>
        <mxCell id="FqFTfs3fWWgAQr_3U9MU-40" value="Controla" style="shape=rhombus;perimeter=rhombusPerimeter;whiteSpace=wrap;html=1;align=center;strokeColor=#DDA15E;fontFamily=Helvetica;fontSize=11;fontColor=#FEFAE0;fillColor=#BC6C25;" vertex="1" parent="1">
          <mxGeometry x="250" y="650" width="120" height="60" as="geometry" />
        </mxCell>
        <mxCell id="FqFTfs3fWWgAQr_3U9MU-44" style="edgeStyle=none;shape=connector;rounded=0;orthogonalLoop=1;jettySize=auto;html=1;labelBackgroundColor=default;strokeColor=#DDA15E;align=center;verticalAlign=middle;fontFamily=Helvetica;fontSize=11;fontColor=#FEFAE0;endArrow=none;endFill=0;fillColor=#BC6C25;" edge="1" parent="1" source="FqFTfs3fWWgAQr_3U9MU-43" target="FqFTfs3fWWgAQr_3U9MU-28">
          <mxGeometry relative="1" as="geometry" />
        </mxCell>
        <mxCell id="FqFTfs3fWWgAQr_3U9MU-121" value="(1,N)" style="edgeLabel;html=1;align=center;verticalAlign=middle;resizable=0;points=[];fontSize=11;fontFamily=Helvetica;fontColor=#FEFAE0;" vertex="1" connectable="0" parent="FqFTfs3fWWgAQr_3U9MU-44">
          <mxGeometry x="-0.14" y="2" relative="1" as="geometry">
            <mxPoint as="offset" />
          </mxGeometry>
        </mxCell>
        <mxCell id="FqFTfs3fWWgAQr_3U9MU-45" style="edgeStyle=none;shape=connector;rounded=0;orthogonalLoop=1;jettySize=auto;html=1;labelBackgroundColor=default;strokeColor=#DDA15E;align=center;verticalAlign=middle;fontFamily=Helvetica;fontSize=11;fontColor=#FEFAE0;endArrow=none;endFill=0;fillColor=#BC6C25;" edge="1" parent="1" source="FqFTfs3fWWgAQr_3U9MU-43" target="FqFTfs3fWWgAQr_3U9MU-24">
          <mxGeometry relative="1" as="geometry" />
        </mxCell>
        <mxCell id="FqFTfs3fWWgAQr_3U9MU-116" value="(1,1)" style="edgeLabel;html=1;align=center;verticalAlign=middle;resizable=0;points=[];fontSize=11;fontFamily=Helvetica;fontColor=#FEFAE0;" vertex="1" connectable="0" parent="FqFTfs3fWWgAQr_3U9MU-45">
          <mxGeometry x="-0.1667" y="-5" relative="1" as="geometry">
            <mxPoint as="offset" />
          </mxGeometry>
        </mxCell>
        <mxCell id="FqFTfs3fWWgAQr_3U9MU-43" value="Pertenece" style="shape=rhombus;perimeter=rhombusPerimeter;whiteSpace=wrap;html=1;align=center;strokeColor=#DDA15E;fontFamily=Helvetica;fontSize=11;fontColor=#FEFAE0;fillColor=#BC6C25;" vertex="1" parent="1">
          <mxGeometry x="797" y="680" width="120" height="60" as="geometry" />
        </mxCell>
        <mxCell id="FqFTfs3fWWgAQr_3U9MU-48" style="edgeStyle=none;shape=connector;rounded=0;orthogonalLoop=1;jettySize=auto;html=1;labelBackgroundColor=default;strokeColor=#DDA15E;align=center;verticalAlign=middle;fontFamily=Helvetica;fontSize=11;fontColor=#FEFAE0;endArrow=none;endFill=0;fillColor=#BC6C25;" edge="1" parent="1" source="FqFTfs3fWWgAQr_3U9MU-46" target="FqFTfs3fWWgAQr_3U9MU-13">
          <mxGeometry relative="1" as="geometry" />
        </mxCell>
        <mxCell id="FqFTfs3fWWgAQr_3U9MU-122" value="(0,N)" style="edgeLabel;html=1;align=center;verticalAlign=middle;resizable=0;points=[];fontSize=11;fontFamily=Helvetica;fontColor=#FEFAE0;" vertex="1" connectable="0" parent="FqFTfs3fWWgAQr_3U9MU-48">
          <mxGeometry x="-0.0222" y="2" relative="1" as="geometry">
            <mxPoint as="offset" />
          </mxGeometry>
        </mxCell>
        <mxCell id="FqFTfs3fWWgAQr_3U9MU-46" value="Tiene" style="shape=rhombus;perimeter=rhombusPerimeter;whiteSpace=wrap;html=1;align=center;strokeColor=#DDA15E;fontFamily=Helvetica;fontSize=11;fontColor=#FEFAE0;fillColor=#BC6C25;" vertex="1" parent="1">
          <mxGeometry x="450" y="110" width="120" height="60" as="geometry" />
        </mxCell>
        <mxCell id="FqFTfs3fWWgAQr_3U9MU-51" style="edgeStyle=none;shape=connector;rounded=0;orthogonalLoop=1;jettySize=auto;html=1;labelBackgroundColor=default;strokeColor=#DDA15E;align=center;verticalAlign=middle;fontFamily=Helvetica;fontSize=11;fontColor=#FEFAE0;endArrow=none;endFill=0;fillColor=#BC6C25;" edge="1" parent="1" source="FqFTfs3fWWgAQr_3U9MU-49" target="FqFTfs3fWWgAQr_3U9MU-14">
          <mxGeometry relative="1" as="geometry" />
        </mxCell>
        <mxCell id="FqFTfs3fWWgAQr_3U9MU-125" value="(0,1)" style="edgeLabel;html=1;align=center;verticalAlign=middle;resizable=0;points=[];fontSize=11;fontFamily=Helvetica;fontColor=#FEFAE0;" vertex="1" connectable="0" parent="FqFTfs3fWWgAQr_3U9MU-51">
          <mxGeometry x="-0.04" y="4" relative="1" as="geometry">
            <mxPoint as="offset" />
          </mxGeometry>
        </mxCell>
        <mxCell id="FqFTfs3fWWgAQr_3U9MU-49" value="Asigna" style="shape=rhombus;perimeter=rhombusPerimeter;whiteSpace=wrap;html=1;align=center;strokeColor=#DDA15E;fontFamily=Helvetica;fontSize=11;fontColor=#FEFAE0;fillColor=#BC6C25;" vertex="1" parent="1">
          <mxGeometry x="40" y="190" width="120" height="60" as="geometry" />
        </mxCell>
        <mxCell id="FqFTfs3fWWgAQr_3U9MU-54" style="edgeStyle=none;shape=connector;rounded=0;orthogonalLoop=1;jettySize=auto;html=1;labelBackgroundColor=default;strokeColor=#DDA15E;align=center;verticalAlign=middle;fontFamily=Helvetica;fontSize=11;fontColor=#FEFAE0;endArrow=none;endFill=0;fillColor=#BC6C25;" edge="1" parent="1" source="FqFTfs3fWWgAQr_3U9MU-52" target="FqFTfs3fWWgAQr_3U9MU-30">
          <mxGeometry relative="1" as="geometry" />
        </mxCell>
        <mxCell id="FqFTfs3fWWgAQr_3U9MU-110" value="(1,1)" style="edgeLabel;html=1;align=center;verticalAlign=middle;resizable=0;points=[];fontSize=11;fontFamily=Helvetica;fontColor=#FEFAE0;" vertex="1" connectable="0" parent="FqFTfs3fWWgAQr_3U9MU-54">
          <mxGeometry x="-0.0591" y="-1" relative="1" as="geometry">
            <mxPoint as="offset" />
          </mxGeometry>
        </mxCell>
        <mxCell id="FqFTfs3fWWgAQr_3U9MU-52" value="Concede" style="shape=rhombus;perimeter=rhombusPerimeter;whiteSpace=wrap;html=1;align=center;strokeColor=#DDA15E;fontFamily=Helvetica;fontSize=11;fontColor=#FEFAE0;fillColor=#BC6C25;" vertex="1" parent="1">
          <mxGeometry x="30" y="400" width="120" height="60" as="geometry" />
        </mxCell>
        <mxCell id="FqFTfs3fWWgAQr_3U9MU-56" style="edgeStyle=none;shape=connector;rounded=0;orthogonalLoop=1;jettySize=auto;html=1;labelBackgroundColor=default;strokeColor=#DDA15E;align=center;verticalAlign=middle;fontFamily=Helvetica;fontSize=11;fontColor=#FEFAE0;endArrow=none;endFill=0;fillColor=#BC6C25;" edge="1" parent="1" source="FqFTfs3fWWgAQr_3U9MU-55" target="FqFTfs3fWWgAQr_3U9MU-3">
          <mxGeometry relative="1" as="geometry" />
        </mxCell>
        <mxCell id="FqFTfs3fWWgAQr_3U9MU-55" value="Tipo_Empleado" style="ellipse;whiteSpace=wrap;html=1;align=center;strokeColor=#DDA15E;fontFamily=Helvetica;fontSize=11;fontColor=#FEFAE0;fillColor=#BC6C25;" vertex="1" parent="1">
          <mxGeometry x="807" y="190" width="100" height="40" as="geometry" />
        </mxCell>
        <mxCell id="FqFTfs3fWWgAQr_3U9MU-57" value="NUSS" style="ellipse;whiteSpace=wrap;html=1;align=center;fontStyle=4;strokeColor=#DDA15E;fontFamily=Helvetica;fontSize=11;fontColor=#FEFAE0;fillColor=#BC6C25;" vertex="1" parent="1">
          <mxGeometry x="630" y="20" width="100" height="40" as="geometry" />
        </mxCell>
        <mxCell id="FqFTfs3fWWgAQr_3U9MU-58" value="Salario" style="ellipse;whiteSpace=wrap;html=1;align=center;strokeColor=#DDA15E;fontFamily=Helvetica;fontSize=11;fontColor=#FEFAE0;fillColor=#BC6C25;" vertex="1" parent="1">
          <mxGeometry x="757" y="20" width="100" height="40" as="geometry" />
        </mxCell>
        <mxCell id="FqFTfs3fWWgAQr_3U9MU-59" value="Nombre" style="ellipse;whiteSpace=wrap;html=1;align=center;strokeColor=#DDA15E;fontFamily=Helvetica;fontSize=11;fontColor=#FEFAE0;fillColor=#BC6C25;" vertex="1" parent="1">
          <mxGeometry x="797" y="80" width="100" height="40" as="geometry" />
        </mxCell>
        <mxCell id="FqFTfs3fWWgAQr_3U9MU-60" value="Nombre" style="ellipse;whiteSpace=wrap;html=1;align=center;strokeColor=#DDA15E;fontFamily=Helvetica;fontSize=11;fontColor=#FEFAE0;fillColor=#BC6C25;" vertex="1" parent="1">
          <mxGeometry x="220" y="10" width="100" height="40" as="geometry" />
        </mxCell>
        <mxCell id="FqFTfs3fWWgAQr_3U9MU-61" value="Curso" style="ellipse;whiteSpace=wrap;html=1;align=center;strokeColor=#DDA15E;fontFamily=Helvetica;fontSize=11;fontColor=#FEFAE0;fillColor=#BC6C25;" vertex="1" parent="1">
          <mxGeometry x="320" y="10" width="100" height="40" as="geometry" />
        </mxCell>
        <mxCell id="FqFTfs3fWWgAQr_3U9MU-62" value="Fecha_Nac" style="ellipse;whiteSpace=wrap;html=1;align=center;strokeColor=#DDA15E;fontFamily=Helvetica;fontSize=11;fontColor=#FEFAE0;fillColor=#BC6C25;" vertex="1" parent="1">
          <mxGeometry x="130" y="50" width="100" height="40" as="geometry" />
        </mxCell>
        <mxCell id="FqFTfs3fWWgAQr_3U9MU-63" value="ID_Hijo" style="ellipse;whiteSpace=wrap;html=1;align=center;fontStyle=4;strokeColor=#DDA15E;fontFamily=Helvetica;fontSize=11;fontColor=#FEFAE0;fillColor=#BC6C25;" vertex="1" parent="1">
          <mxGeometry x="370" y="50" width="100" height="40" as="geometry" />
        </mxCell>
        <mxCell id="FqFTfs3fWWgAQr_3U9MU-69" style="edgeStyle=none;shape=connector;rounded=0;orthogonalLoop=1;jettySize=auto;html=1;entryX=0.42;entryY=1.025;entryDx=0;entryDy=0;entryPerimeter=0;labelBackgroundColor=default;strokeColor=#DDA15E;align=center;verticalAlign=middle;fontFamily=Helvetica;fontSize=11;fontColor=#FEFAE0;endArrow=none;endFill=0;fillColor=#BC6C25;" edge="1" parent="1" source="FqFTfs3fWWgAQr_3U9MU-1" target="FqFTfs3fWWgAQr_3U9MU-58">
          <mxGeometry relative="1" as="geometry" />
        </mxCell>
        <mxCell id="FqFTfs3fWWgAQr_3U9MU-75" style="edgeStyle=none;shape=connector;rounded=0;orthogonalLoop=1;jettySize=auto;html=1;labelBackgroundColor=default;strokeColor=#DDA15E;align=center;verticalAlign=middle;fontFamily=Helvetica;fontSize=11;fontColor=#FEFAE0;endArrow=none;endFill=0;fillColor=#BC6C25;" edge="1" parent="1" source="FqFTfs3fWWgAQr_3U9MU-72" target="FqFTfs3fWWgAQr_3U9MU-8">
          <mxGeometry relative="1" as="geometry" />
        </mxCell>
        <mxCell id="FqFTfs3fWWgAQr_3U9MU-72" value="Complemento" style="ellipse;whiteSpace=wrap;html=1;align=center;strokeColor=#DDA15E;fontFamily=Helvetica;fontSize=11;fontColor=#FEFAE0;fillColor=#BC6C25;" vertex="1" parent="1">
          <mxGeometry x="490" y="230" width="100" height="40" as="geometry" />
        </mxCell>
        <mxCell id="FqFTfs3fWWgAQr_3U9MU-74" style="edgeStyle=none;shape=connector;rounded=0;orthogonalLoop=1;jettySize=auto;html=1;labelBackgroundColor=default;strokeColor=#DDA15E;align=center;verticalAlign=middle;fontFamily=Helvetica;fontSize=11;fontColor=#FEFAE0;endArrow=none;endFill=0;fillColor=#BC6C25;" edge="1" parent="1" source="FqFTfs3fWWgAQr_3U9MU-73" target="FqFTfs3fWWgAQr_3U9MU-9">
          <mxGeometry relative="1" as="geometry" />
        </mxCell>
        <mxCell id="FqFTfs3fWWgAQr_3U9MU-73" value="AÃ±os_Experiencia" style="ellipse;whiteSpace=wrap;html=1;align=center;strokeColor=#DDA15E;fontFamily=Helvetica;fontSize=11;fontColor=#FEFAE0;fillColor=#BC6C25;" vertex="1" parent="1">
          <mxGeometry x="897" y="350" width="100" height="40" as="geometry" />
        </mxCell>
        <mxCell id="FqFTfs3fWWgAQr_3U9MU-76" value="Dieta" style="ellipse;whiteSpace=wrap;html=1;align=center;strokeColor=#DDA15E;fontFamily=Helvetica;fontSize=11;fontColor=#FEFAE0;fillColor=#BC6C25;" vertex="1" parent="1">
          <mxGeometry x="990" y="490" width="100" height="40" as="geometry" />
        </mxCell>
        <mxCell id="FqFTfs3fWWgAQr_3U9MU-77" value="Comision" style="ellipse;whiteSpace=wrap;html=1;align=center;strokeColor=#DDA15E;fontFamily=Helvetica;fontSize=11;fontColor=#FEFAE0;fillColor=#BC6C25;" vertex="1" parent="1">
          <mxGeometry x="970" y="560" width="100" height="40" as="geometry" />
        </mxCell>
        <mxCell id="FqFTfs3fWWgAQr_3U9MU-80" value="Especialidad" style="ellipse;whiteSpace=wrap;html=1;align=center;strokeColor=#DDA15E;fontFamily=Helvetica;fontSize=11;fontColor=#FEFAE0;fillColor=#BC6C25;" vertex="1" parent="1">
          <mxGeometry x="682" y="590" width="100" height="40" as="geometry" />
        </mxCell>
        <mxCell id="FqFTfs3fWWgAQr_3U9MU-82" value="Nombre" style="ellipse;whiteSpace=wrap;html=1;align=center;strokeColor=#DDA15E;fontFamily=Helvetica;fontSize=11;fontColor=#FEFAE0;fillColor=#BC6C25;" vertex="1" parent="1">
          <mxGeometry x="790" y="960" width="100" height="40" as="geometry" />
        </mxCell>
        <mxCell id="FqFTfs3fWWgAQr_3U9MU-83" value="KM&lt;sup&gt;2&lt;/sup&gt;" style="ellipse;whiteSpace=wrap;html=1;align=center;strokeColor=#DDA15E;fontFamily=Helvetica;fontSize=11;fontColor=#FEFAE0;fillColor=#BC6C25;" vertex="1" parent="1">
          <mxGeometry x="897" y="950" width="100" height="40" as="geometry" />
        </mxCell>
        <mxCell id="FqFTfs3fWWgAQr_3U9MU-84" value="N_Pot_Clientes" style="ellipse;whiteSpace=wrap;html=1;align=center;strokeColor=#DDA15E;fontFamily=Helvetica;fontSize=11;fontColor=#FEFAE0;fillColor=#BC6C25;" vertex="1" parent="1">
          <mxGeometry x="697" y="930" width="100" height="40" as="geometry" />
        </mxCell>
        <mxCell id="FqFTfs3fWWgAQr_3U9MU-85" value="ID_Region" style="ellipse;whiteSpace=wrap;html=1;align=center;fontStyle=4;strokeColor=#DDA15E;fontFamily=Helvetica;fontSize=11;fontColor=#FEFAE0;fillColor=#BC6C25;" vertex="1" parent="1">
          <mxGeometry x="960" y="910" width="100" height="40" as="geometry" />
        </mxCell>
        <mxCell id="FqFTfs3fWWgAQr_3U9MU-90" value="Nombre" style="ellipse;whiteSpace=wrap;html=1;align=center;strokeColor=#DDA15E;fontFamily=Helvetica;fontSize=11;fontColor=#FEFAE0;fillColor=#BC6C25;" vertex="1" parent="1">
          <mxGeometry x="200" y="890" width="100" height="40" as="geometry" />
        </mxCell>
        <mxCell id="FqFTfs3fWWgAQr_3U9MU-91" value="Fecha_Ini" style="ellipse;whiteSpace=wrap;html=1;align=center;strokeColor=#DDA15E;fontFamily=Helvetica;fontSize=11;fontColor=#FEFAE0;fillColor=#BC6C25;" vertex="1" parent="1">
          <mxGeometry x="290" y="930" width="100" height="40" as="geometry" />
        </mxCell>
        <mxCell id="FqFTfs3fWWgAQr_3U9MU-92" value="ID_Proyecto" style="ellipse;whiteSpace=wrap;html=1;align=center;fontStyle=4;strokeColor=#DDA15E;fontFamily=Helvetica;fontSize=11;fontColor=#FEFAE0;fillColor=#BC6C25;" vertex="1" parent="1">
          <mxGeometry x="390" y="910" width="100" height="40" as="geometry" />
        </mxCell>
        <mxCell id="FqFTfs3fWWgAQr_3U9MU-96" value="N_Empleados" style="ellipse;whiteSpace=wrap;html=1;align=center;dashed=1;strokeColor=#DDA15E;fontFamily=Helvetica;fontSize=11;fontColor=#FEFAE0;fillColor=#BC6C25;" vertex="1" parent="1">
          <mxGeometry x="200" y="410" width="100" height="40" as="geometry" />
        </mxCell>
        <mxCell id="FqFTfs3fWWgAQr_3U9MU-97" value="Nombre" style="ellipse;whiteSpace=wrap;html=1;align=center;fontStyle=4;strokeColor=#DDA15E;fontFamily=Helvetica;fontSize=11;fontColor=#FEFAE0;fillColor=#BC6C25;" vertex="1" parent="1">
          <mxGeometry x="60" y="540" width="100" height="40" as="geometry" />
        </mxCell>
        <mxCell id="FqFTfs3fWWgAQr_3U9MU-98" value="Localizacion" style="ellipse;whiteSpace=wrap;html=1;align=center;strokeColor=#DDA15E;fontFamily=Helvetica;fontSize=11;fontColor=#FEFAE0;fillColor=#BC6C25;" vertex="1" parent="1">
          <mxGeometry x="130" y="600" width="100" height="40" as="geometry" />
        </mxCell>
        <mxCell id="FqFTfs3fWWgAQr_3U9MU-102" value="Fecha_Beca" style="ellipse;whiteSpace=wrap;html=1;align=center;strokeColor=#DDA15E;fontFamily=Helvetica;fontSize=11;fontColor=#FEFAE0;fillColor=#BC6C25;" vertex="1" parent="1">
          <mxGeometry x="-240" y="200" width="100" height="40" as="geometry" />
        </mxCell>
        <mxCell id="FqFTfs3fWWgAQr_3U9MU-103" value="CuantÃ­a" style="ellipse;whiteSpace=wrap;html=1;align=center;strokeColor=#DDA15E;fontFamily=Helvetica;fontSize=11;fontColor=#FEFAE0;fillColor=#BC6C25;" vertex="1" parent="1">
          <mxGeometry x="-270" y="250" width="100" height="40" as="geometry" />
        </mxCell>
        <mxCell id="FqFTfs3fWWgAQr_3U9MU-104" value="ID_Beca" style="ellipse;whiteSpace=wrap;html=1;align=center;fontStyle=4;strokeColor=#DDA15E;fontFamily=Helvetica;fontSize=11;fontColor=#FEFAE0;fillColor=#BC6C25;" vertex="1" parent="1">
          <mxGeometry x="-280" y="310" width="100" height="40" as="geometry" />
        </mxCell>
        <mxCell id="FqFTfs3fWWgAQr_3U9MU-105" value="Tipo_Beca" style="ellipse;whiteSpace=wrap;html=1;align=center;strokeColor=#DDA15E;fontFamily=Helvetica;fontSize=11;fontColor=#FEFAE0;fillColor=#BC6C25;" vertex="1" parent="1">
          <mxGeometry x="-210" y="360" width="100" height="40" as="geometry" />
        </mxCell>
        <mxCell id="FqFTfs3fWWgAQr_3U9MU-113" value="(1,1)" style="text;html=1;align=center;verticalAlign=middle;resizable=0;points=[];autosize=1;strokeColor=none;fillColor=none;fontSize=11;fontFamily=Helvetica;fontColor=#FEFAE0;" vertex="1" parent="1">
          <mxGeometry x="695" y="158" width="50" height="30" as="geometry" />
        </mxCell>
        <mxCell id="FqFTfs3fWWgAQr_3U9MU-114" value="(1,1)" style="text;html=1;align=center;verticalAlign=middle;resizable=0;points=[];autosize=1;strokeColor=none;fillColor=none;fontSize=11;fontFamily=Helvetica;fontColor=#FEFAE0;" vertex="1" parent="1">
          <mxGeometry x="775" y="388" width="50" height="30" as="geometry" />
        </mxCell>
        <mxCell id="FqFTfs3fWWgAQr_3U9MU-130" value="&lt;font style=&quot;font-size: 14px;&quot;&gt;&lt;b&gt;N:M&lt;/b&gt;&lt;/font&gt;" style="text;strokeColor=none;fillColor=none;spacingLeft=4;spacingRight=4;overflow=hidden;rotatable=0;points=[[0,0.5],[1,0.5]];portConstraint=eastwest;fontSize=11;whiteSpace=wrap;html=1;fontFamily=Helvetica;fontColor=#FEFAE0;" vertex="1" parent="1">
          <mxGeometry x="500" y="80" width="40" height="30" as="geometry" />
        </mxCell>
        <mxCell id="FqFTfs3fWWgAQr_3U9MU-131" value="&lt;font style=&quot;font-size: 14px;&quot;&gt;&lt;b&gt;1:N&lt;/b&gt;&lt;/font&gt;" style="text;strokeColor=none;fillColor=none;spacingLeft=4;spacingRight=4;overflow=hidden;rotatable=0;points=[[0,0.5],[1,0.5]];portConstraint=eastwest;fontSize=11;whiteSpace=wrap;html=1;fontFamily=Helvetica;fontColor=#FEFAE0;" vertex="1" parent="1">
          <mxGeometry x="80" y="160" width="40" height="30" as="geometry" />
        </mxCell>
        <mxCell id="FqFTfs3fWWgAQr_3U9MU-132" value="&lt;font style=&quot;font-size: 14px;&quot;&gt;&lt;b&gt;N:1&lt;/b&gt;&lt;/font&gt;" style="text;strokeColor=none;fillColor=none;spacingLeft=4;spacingRight=4;overflow=hidden;rotatable=0;points=[[0,0.5],[1,0.5]];portConstraint=eastwest;fontSize=11;whiteSpace=wrap;html=1;fontFamily=Helvetica;fontColor=#FEFAE0;" vertex="1" parent="1">
          <mxGeometry x="70" y="375" width="40" height="30" as="geometry" />
        </mxCell>
        <mxCell id="FqFTfs3fWWgAQr_3U9MU-133" value="&lt;font style=&quot;font-size: 14px;&quot;&gt;&lt;b&gt;1:1&lt;/b&gt;&lt;/font&gt;" style="text;strokeColor=none;fillColor=none;spacingLeft=4;spacingRight=4;overflow=hidden;rotatable=0;points=[[0,0.5],[1,0.5]];portConstraint=eastwest;fontSize=11;whiteSpace=wrap;html=1;fontFamily=Helvetica;fontColor=#FEFAE0;" vertex="1" parent="1">
          <mxGeometry x="430" y="330" width="40" height="30" as="geometry" />
        </mxCell>
        <mxCell id="FqFTfs3fWWgAQr_3U9MU-134" value="&lt;font style=&quot;font-size: 14px;&quot;&gt;&lt;b&gt;1:N&lt;/b&gt;&lt;/font&gt;" style="text;strokeColor=none;fillColor=none;spacingLeft=4;spacingRight=4;overflow=hidden;rotatable=0;points=[[0,0.5],[1,0.5]];portConstraint=eastwest;fontSize=11;whiteSpace=wrap;html=1;fontFamily=Helvetica;fontColor=#FEFAE0;" vertex="1" parent="1">
          <mxGeometry x="490" y="530" width="40" height="30" as="geometry" />
        </mxCell>
        <mxCell id="FqFTfs3fWWgAQr_3U9MU-135" value="&lt;font style=&quot;font-size: 14px;&quot;&gt;&lt;b&gt;1:N&lt;/b&gt;&lt;/font&gt;" style="text;strokeColor=none;fillColor=none;spacingLeft=4;spacingRight=4;overflow=hidden;rotatable=0;points=[[0,0.5],[1,0.5]];portConstraint=eastwest;fontSize=11;whiteSpace=wrap;html=1;fontFamily=Helvetica;fontColor=#FEFAE0;" vertex="1" parent="1">
          <mxGeometry x="374" y="665" width="40" height="30" as="geometry" />
        </mxCell>
        <mxCell id="FqFTfs3fWWgAQr_3U9MU-136" value="&lt;font style=&quot;font-size: 14px;&quot;&gt;&lt;b&gt;N:M&lt;/b&gt;&lt;/font&gt;" style="text;strokeColor=none;fillColor=none;spacingLeft=4;spacingRight=4;overflow=hidden;rotatable=0;points=[[0,0.5],[1,0.5]];portConstraint=eastwest;fontSize=11;whiteSpace=wrap;html=1;fontFamily=Helvetica;fontColor=#FEFAE0;" vertex="1" parent="1">
          <mxGeometry x="530" y="635" width="40" height="30" as="geometry" />
        </mxCell>
        <mxCell id="FqFTfs3fWWgAQr_3U9MU-137" value="&lt;font style=&quot;font-size: 14px;&quot;&gt;&lt;b&gt;1:N&lt;/b&gt;&lt;/font&gt;" style="text;strokeColor=none;fillColor=none;spacingLeft=4;spacingRight=4;overflow=hidden;rotatable=0;points=[[0,0.5],[1,0.5]];portConstraint=eastwest;fontSize=11;whiteSpace=wrap;html=1;fontFamily=Helvetica;fontColor=#FEFAE0;" vertex="1" parent="1">
          <mxGeometry x="917" y="695" width="40" height="30" as="geometry" />
        </mxCell>
      </root>
    </mxGraphModel>
  </diagram>
</mxfile>
